<svg version="1.1" xmlns="http://www.w3.org/2000/svg" xmlns:xlink="http://www.w3.org/1999/xlink" width="72px" height="72px" viewBox="0,0,256,256"><g fill="#64748B" fill-rule="nonzero" stroke="none" stroke-width="1" stroke-linecap="butt" stroke-linejoin="miter" stroke-miterlimit="10" stroke-dasharray="" stroke-dashoffset="0" font-family="none" font-weight="none" font-size="none" text-anchor="none" style="mix-blend-mode: normal"><g transform="scale(3.55556,3.55556)"><path d="M36,12c13.255,0 24,10.745 24,24c0,13.255 -10.745,24 -24,24c-13.255,0 -24,-10.745 -24,-24c0,-13.255 10.745,-24 24,-24zM43,39c1.657,0 3,-1.343 3,-3c0,-1.657 -1.343,-3 -3,-3c-0.329,0 -1.426,0 -4,0c0,-2.574 0,-3.672 0,-4c0,-1.657 -1.343,-3 -3,-3c-1.657,0 -3,1.343 -3,3c0,0.328 0,1.426 0,4c-2.574,0 -3.671,0 -4,0c-1.657,0 -3,1.343 -3,3c0,1.657 1.343,3 3,3c0.329,0 1.426,0 4,0c0,2.574 0,3.672 0,4c0,1.657 1.343,3 3,3c1.657,0 3,-1.343 3,-3c0,-0.328 0,-1.426 0,-4c2.574,0 3.671,0 4,0z"></path></g></g></svg>