<svg version="1.1" xmlns="http://www.w3.org/2000/svg" xmlns:xlink="http://www.w3.org/1999/xlink" width="50px" height="50px" viewBox="0,0,256,256"><g fill="#ffffff" fill-rule="nonzero" stroke="none" stroke-width="1" stroke-linecap="butt" stroke-linejoin="miter" stroke-miterlimit="10" stroke-dasharray="" stroke-dashoffset="0" font-family="none" font-weight="none" font-size="none" text-anchor="none" style="mix-blend-mode: normal"><g transform="scale(5.12,5.12)"><path d="M19.9375,12.96875c-0.52344,0.01953 -1.01562,0.24609 -1.375,0.625l-9.875,10l-1.375,1.40625l1.375,1.40625l9.875,10c0.77734,0.79297 2.05078,0.80859 2.84375,0.03125c0.79297,-0.77734 0.80859,-2.05078 0.03125,-2.84375l-6.53125,-6.59375h25.09375c0.72266,0.01172 1.39063,-0.36719 1.75391,-0.99219c0.36719,-0.62109 0.36719,-1.39453 0,-2.01562c-0.36328,-0.625 -1.03125,-1.00391 -1.75391,-0.99219h-25.09375l6.53125,-6.59375c0.60156,-0.58203 0.78125,-1.47266 0.44531,-2.24219c-0.33594,-0.76562 -1.10937,-1.24219 -1.94531,-1.19531z"></path></g></g></svg>