<svg version="1.1" xmlns="http://www.w3.org/2000/svg" xmlns:xlink="http://www.w3.org/1999/xlink" width="24px" height="24px" viewBox="0,0,256,256"><g fill="#ffffff" fill-rule="nonzero" stroke="none" stroke-width="1" stroke-linecap="butt" stroke-linejoin="miter" stroke-miterlimit="10" stroke-dasharray="" stroke-dashoffset="0" font-family="none" font-weight="none" font-size="none" text-anchor="none" style="mix-blend-mode: normal"><g transform="scale(10.66667,10.66667)"><path d="M3.74219,2l-1.74023,0.01367c-0.36025,-0.002 -0.69373,0.18991 -0.87301,0.50238c-0.17928,0.31247 -0.17665,0.69722 0.00689,1.00722c0.18354,0.30999 0.51961,0.49732 0.87979,0.4904l1.07031,-0.00781l3.29297,7.90234l-1.19727,1.91406c-0.83835,1.33874 0.18104,3.17773 1.75977,3.17773h11.05859c0.36064,0.0051 0.69608,-0.18438 0.87789,-0.49587c0.18181,-0.3115 0.18181,-0.69676 0,-1.00825c-0.18181,-0.3115 -0.51725,-0.50097 -0.87789,-0.49587h-11.05859c-0.11127,0 -0.1241,-0.02193 -0.06445,-0.11719c0.00065,0 0.0013,0 0.00195,0l1.17578,-1.88281h7.4668c0.726,0 1.39605,-0.3943 1.74805,-1.0293l3.60156,-6.48633c0.371,-0.666 -0.11105,-1.48437 -0.87305,-1.48437h-14.74805l-0.57617,-1.38477c-0.15653,-0.37546 -0.52487,-0.61871 -0.93164,-0.61523zM7,18c-1.10457,0 -2,0.89543 -2,2c0,1.10457 0.89543,2 2,2c1.10457,0 2,-0.89543 2,-2c0,-1.10457 -0.89543,-2 -2,-2zM17,18c-1.10457,0 -2,0.89543 -2,2c0,1.10457 0.89543,2 2,2c1.10457,0 2,-0.89543 2,-2c0,-1.10457 -0.89543,-2 -2,-2z"></path></g></g></svg>