<svg version="1.1" xmlns="http://www.w3.org/2000/svg" xmlns:xlink="http://www.w3.org/1999/xlink" width="50px" height="50px" viewBox="0,0,256,256"><g fill="#000000" fill-rule="nonzero" stroke="none" stroke-width="1" stroke-linecap="butt" stroke-linejoin="miter" stroke-miterlimit="10" stroke-dasharray="" stroke-dashoffset="0" font-family="none" font-weight="none" font-size="none" text-anchor="none" style="mix-blend-mode: normal"><g transform="scale(5.12,5.12)"><path d="M25,0c-1.84766,0 -3.35937,1.28906 -3.8125,3h-11.1875c-1.65234,0 -3,1.34766 -3,3v39c0,1.65234 1.34766,3 3,3h30c1.65234,0 3,-1.34766 3,-3v-39c0,-1.65234 -1.34766,-3 -3,-3h-6.9375c-0.01953,0 -0.04297,0 -0.0625,0h-4.1875c-0.45312,-1.71094 -1.96484,-3 -3.8125,-3zM25,2c1.11719,0 2,0.88281 2,2c0,0.55078 0.44922,1 1,1h4v3c0,0.56641 -0.43359,1 -1,1h-12c-0.56641,0 -1,-0.43359 -1,-1v-3h4c0.55078,0 1,-0.44922 1,-1c0,-1.11719 0.88281,-2 2,-2zM15,18h4v4h-4zM24,19h12c0.55469,0 1,0.44922 1,1c0,0.55078 -0.44531,1 -1,1h-12c-0.55469,0 -1,-0.44922 -1,-1c0,-0.55078 0.44531,-1 1,-1zM15,26h4v4h-4zM24,27h12c0.55469,0 1,0.44922 1,1c0,0.55078 -0.44531,1 -1,1h-12c-0.55469,0 -1,-0.44922 -1,-1c0,-0.55078 0.44531,-1 1,-1zM15,34h4v4h-4zM24,35h12c0.55469,0 1,0.44922 1,1c0,0.55078 -0.44531,1 -1,1h-12c-0.55469,0 -1,-0.44922 -1,-1c0,-0.55078 0.44531,-1 1,-1z"></path></g></g></svg>