<svg version="1.1" xmlns="http://www.w3.org/2000/svg" xmlns:xlink="http://www.w3.org/1999/xlink" width="48px" height="48px" viewBox="0,0,256,256"><g fill="#ffffff" fill-rule="nonzero" stroke="none" stroke-width="1" stroke-linecap="butt" stroke-linejoin="miter" stroke-miterlimit="10" stroke-dasharray="" stroke-dashoffset="0" font-family="none" font-weight="none" font-size="none" text-anchor="none" style="mix-blend-mode: normal"><g transform="scale(5.33333,5.33333)"><path d="M12.5,6c-3.57194,0 -6.5,2.92806 -6.5,6.5v23c0,3.57194 2.92806,6.5 6.5,6.5h23c3.57194,0 6.5,-2.92806 6.5,-6.5v-23c0,-3.57194 -2.92806,-6.5 -6.5,-6.5zM12.5,9h23c1.95006,0 3.5,1.54994 3.5,3.5v1.5h-30v-1.5c0,-1.95006 1.54994,-3.5 3.5,-3.5zM9,17h30v18.5c0,1.95006 -1.54994,3.5 -3.5,3.5h-23c-1.95006,0 -3.5,-1.54994 -3.5,-3.5zM24,20.5c-0.554,0 -1.04752,0.35195 -1.22852,0.87695l-1.28516,3.73828h-4.26562c-0.557,0 -1.05247,0.35677 -1.23047,0.88477c-0.178,0.528 0.00227,1.11027 0.44727,1.44727l3.45508,2.62109l-1.16992,3.74609c-0.167,0.538 0.03024,1.12227 0.49023,1.44727c0.46,0.325 1.07734,0.31752 1.52734,-0.02148l3.25977,-2.44141l3.25977,2.44141c0.23,0.172 0.50334,0.25977 0.77734,0.25977c0.262,0 0.526,-0.07928 0.75,-0.23828c0.46,-0.325 0.65823,-0.91027 0.49023,-1.44727l-1.16992,-3.74609l3.45508,-2.62109c0.444,-0.337 0.62527,-0.92022 0.44727,-1.44922c-0.178,-0.528 -0.67347,-0.88281 -1.23047,-0.88281h-4.26562l-1.28516,-3.73828c-0.181,-0.524 -0.67452,-0.87695 -1.22852,-0.87695z"></path></g></g></svg>