<svg version="1.1" xmlns="http://www.w3.org/2000/svg" xmlns:xlink="http://www.w3.org/1999/xlink" width="50px" height="50px" viewBox="0,0,256,256"><g fill="#1d0018" fill-rule="nonzero" stroke="none" stroke-width="1" stroke-linecap="butt" stroke-linejoin="miter" stroke-miterlimit="10" stroke-dasharray="" stroke-dashoffset="0" font-family="none" font-weight="none" font-size="none" text-anchor="none" style="mix-blend-mode: normal"><g transform="scale(5.12,5.12)"><path d="M25,1c-5.51562,0 -10,4.48438 -10,10v2h-7.90625l-4.21875,37h44.25l-4.21875,-37h-5.90625v6c0,1.65625 -1.34375,3 -3,3c-0.22266,0 -0.44922,-0.01562 -0.65625,-0.0625c-1.33984,-0.30078 -2.34375,-1.50391 -2.34375,-2.9375c0,-1.30078 0.83984,-2.39844 2,-2.8125v2.8125c0,0.55078 0.44531,1 1,1c0.55469,0 1,-0.44922 1,-1v-8c0,-5.51562 -4.48437,-10 -10,-10zM25,3c4.41016,0 8,3.58984 8,8v2h-14v6c0,1.65625 -1.34375,3 -3,3c-0.22266,0 -0.44922,-0.01562 -0.65625,-0.0625c-1.34375,-0.30078 -2.34375,-1.50391 -2.34375,-2.9375c0,-1.30078 0.83984,-2.39844 2,-2.8125v2.8125c0,0.55078 0.44922,1 1,1c0.55078,0 1,-0.44922 1,-1v-8c0,-4.41016 3.58984,-8 8,-8z"></path></g></g></svg>