<svg version="1.1" xmlns="http://www.w3.org/2000/svg" xmlns:xlink="http://www.w3.org/1999/xlink" width="50px" height="50px" viewBox="0,0,256,256"><g fill="#c69a50" fill-rule="nonzero" stroke="none" stroke-width="1" stroke-linecap="butt" stroke-linejoin="miter" stroke-miterlimit="10" stroke-dasharray="" stroke-dashoffset="0" font-family="none" font-weight="none" font-size="none" text-anchor="none" style="mix-blend-mode: normal"><g transform="scale(5.12,5.12)"><path d="M25,1c-8.82031,0 -16,7.17969 -16,16c0,14.11328 14.62891,30.94531 15.25,31.65625c0.19141,0.21875 0.46094,0.34375 0.75,0.34375c0.30859,-0.01953 0.55859,-0.125 0.75,-0.34375c0.62109,-0.72266 15.25,-17.84375 15.25,-31.65625c0,-8.82031 -7.17969,-16 -16,-16zM25,12c3.3125,0 6,2.6875 6,6c0,3.3125 -2.6875,6 -6,6c-3.3125,0 -6,-2.6875 -6,-6c0,-3.3125 2.6875,-6 6,-6z"></path></g></g></svg>