<svg version="1.1" xmlns="http://www.w3.org/2000/svg" xmlns:xlink="http://www.w3.org/1999/xlink" width="64px" height="64px" viewBox="0,0,256,256"><g fill="#ffffff" fill-rule="nonzero" stroke="none" stroke-width="1" stroke-linecap="butt" stroke-linejoin="miter" stroke-miterlimit="10" stroke-dasharray="" stroke-dashoffset="0" font-family="none" font-weight="none" font-size="none" text-anchor="none" style="mix-blend-mode: normal"><g transform="scale(4,4)"><path d="M48,8.99967h-17v-7c0.00013,-0.38454 -0.22026,-0.73508 -0.56686,-0.90162c-0.3466,-0.16654 -0.758,-0.11957 -1.05814,0.12082l-4.375,3.49998l-4.375,-3.5c-0.30013,-0.24039 -0.71153,-0.28737 -1.05813,-0.12084c-0.3466,0.16654 -0.567,0.51708 -0.56687,0.90162v7h-4c-2.20817,0.00233 -3.99767,1.79183 -4,4v47.00037c0.00181,1.6561 1.3439,2.99819 3,3h30c1.6561,-0.00181 2.99819,-1.3439 3,-3v-7h3c1.6561,-0.00181 2.99819,-1.3439 3,-3v-36.0003c-0.00329,-2.76006 -2.23994,-4.99672 -5,-5.00003zM21,4.08024l3.375,2.70022c0.36551,0.292 0.88449,0.292 1.25,0l3.375,-2.70022v10.91947h-8zM15,10.99968h4v4h-4c-1.10457,0 -2,-0.89543 -2,-2c0,-1.10457 0.89543,-2 2,-2zM45,60c-0.00055,0.55206 -0.44794,0.99945 -1,1h-30c-0.55207,-0.00052 -0.99948,-0.44793 -1,-1v-43.53688c0.6076,0.35231 1.29765,0.53746 2,0.5366h29c0.55206,0.00055 0.99945,0.44794 1,1zM51,49.99994c-0.00055,0.55206 -0.44794,0.99945 -1,1h-3v-33.00021c-0.00181,-1.6561 -1.3439,-2.99819 -3,-3h-13v-4h17c1.6561,0.00181 2.99819,1.3439 3,3z"></path><path d="M41,42.99988h-2c-0.00652,-5.13299 -3.89336,-9.42983 -9,-9.94936v-1.05071c0,-0.55228 -0.44772,-1 -1,-1c-0.55228,0 -1,0.44772 -1,1v1.05071c-5.10664,0.51952 -8.99348,4.81636 -9,9.94936h-2c-0.55228,0 -1,0.44772 -1,1c0,0.55228 0.44772,1 1,1h24c0.55228,0 1,-0.44772 1,-1c0,-0.55228 -0.44772,-1 -1,-1zM21,42.99988c0,-4.41828 3.58172,-8 8,-8c4.41828,0 8,3.58172 8,8z"></path></g></g></svg>