<svg version="1.1" xmlns="http://www.w3.org/2000/svg" xmlns:xlink="http://www.w3.org/1999/xlink" width="50px" height="50px" viewBox="0,0,256,256"><g fill="#ffffff" fill-rule="nonzero" stroke="none" stroke-width="1" stroke-linecap="butt" stroke-linejoin="miter" stroke-miterlimit="10" stroke-dasharray="" stroke-dashoffset="0" font-family="none" font-weight="none" font-size="none" text-anchor="none" style="mix-blend-mode: normal"><g transform="scale(5.12,5.12)"><path d="M12.87695,2.03125c-1.04222,-0.02051 -2.08199,0.35347 -2.86719,1.13867c-0.52869,0.52869 -0.80328,1.18753 -0.96289,1.86523c-0.67883,0.1597 -1.33795,0.43366 -1.86719,0.96289c-1.5704,1.5704 -1.49649,4.16172 0.0918,5.75c1.33377,1.33376 3.34116,1.52762 4.89062,0.64844l1.46289,1.46289c-1.0207,1.45927 -1.625,3.23067 -1.625,5.14063c0,0.33837 0.02601,0.67087 0.0625,1h-2.90234c-0.04971,-0.00834 -0.09999,-0.01291 -0.15039,-0.01367c-0.34658,-0.00064 -0.66878,0.1782 -0.85156,0.47266c-0.01774,0.02846 -0.03404,0.05779 -0.04883,0.08789c-0.00822,0.01542 -0.01604,0.03105 -0.02344,0.04688l-4,9c-0.22437,0.50482 0.00299,1.09595 0.50781,1.32031c0.50482,0.22437 1.09595,-0.00299 1.32031,-0.50781l2.68359,-6.03906l3.61914,19.8125c0.08673,0.47461 0.49995,0.81964 0.98242,0.82031h23.60156c0.48247,-0.00067 0.89569,-0.3457 0.98242,-0.82031l3.61914,-19.8125l2.68359,6.03906c0.14508,0.32666 0.45343,0.55109 0.80887,0.58871c0.35544,0.03763 0.70395,-0.11727 0.9142,-0.40631c0.21025,-0.28905 0.2503,-0.66832 0.10505,-0.9949l-3.99805,-8.99414c-0.00065,-0.00196 -0.0013,-0.00391 -0.00195,-0.00586c-0.16249,-0.37903 -0.54097,-0.61946 -0.95312,-0.60547c-0.03991,0.00152 -0.0797,0.00544 -0.11914,0.01172h-2.89258c-0.13034,-1.29147 -0.51502,-2.50743 -1.0957,-3.60742l1.99609,-1.99609c1.54964,0.88015 3.55841,0.68378 4.89258,-0.65039c1.58828,-1.58828 1.66219,-4.17765 0.0918,-5.74805c-0.52856,-0.52953 -1.1873,-0.80337 -1.86523,-0.96289c-0.15961,-0.67771 -0.4342,-1.33655 -0.96289,-1.86523c-0.7852,-0.7852 -1.82497,-1.15919 -2.86719,-1.13867c-1.04222,0.02051 -2.08672,0.43633 -2.88086,1.23047c-1.33417,1.33417 -1.53054,3.34294 -0.65039,4.89258l-2.00586,2.00586c-1.4084,-0.73776 -3.00995,-1.16016 -4.70898,-1.16016c-0.79766,0 -1.57066,0.10173 -2.31641,0.27539c-1.34405,-0.79697 -2.90424,-1.27539 -4.57617,-1.27539c-0.83484,0 -1.64027,0.12368 -2.4082,0.33789l-2.18555,-2.18359c0.88056,-1.54971 0.68591,-3.55824 -0.64844,-4.89258c-0.79414,-0.79414 -1.83864,-1.20995 -2.88086,-1.23047zM12.85352,4.01953c0.52632,0.01268 1.06238,0.22839 1.49023,0.65625c0.85572,0.85572 0.86345,2.14632 0.08984,2.91992c-0.39037,0.39053 -0.39037,1.02353 0,1.41406l2.15625,2.1543c-0.59219,0.33493 -1.1391,0.73797 -1.63867,1.19336l-1.93164,-1.93359c-0.39053,-0.39037 -1.02353,-0.39037 -1.41406,0c-0.7736,0.7736 -2.06421,0.76392 -2.91992,-0.0918c-0.85572,-0.85572 -0.8654,-2.14437 -0.0918,-2.91797c0.35519,-0.35519 0.81325,-0.53302 1.31445,-0.54883c0.52736,-0.01732 0.95054,-0.44136 0.9668,-0.96875c0.01584,-0.50208 0.19364,-0.95731 0.54883,-1.3125c0.3868,-0.3868 0.90337,-0.57714 1.42969,-0.56445zM38.16211,6.01953c0.52632,-0.01268 1.04289,0.17765 1.42969,0.56445c0.35519,0.35519 0.53103,0.81042 0.54688,1.3125c0.01631,0.52812 0.44063,0.95244 0.96875,0.96875c0.50211,0.01584 0.95913,0.19285 1.3125,0.54688c0.7736,0.7736 0.76392,2.06421 -0.0918,2.91992c-0.85572,0.85572 -2.14632,0.86539 -2.91992,0.0918c-0.39053,-0.39037 -1.02353,-0.39037 -1.41406,0l-2.26953,2.26953c-0.42483,-0.51533 -0.89737,-0.98937 -1.41602,-1.41211l2.27344,-2.27148c0.39037,-0.39053 0.39037,-1.02353 0,-1.41406c-0.7736,-0.7736 -0.76587,-2.06421 0.08984,-2.91992c0.42786,-0.42786 0.96392,-0.64357 1.49023,-0.65625zM21,12c0.67886,0 1.33068,0.10403 1.94922,0.2832c-0.56583,0.31478 -1.1005,0.67713 -1.5918,1.08984c-0.28745,0.22535 -0.42918,0.58949 -0.36972,0.94988c0.05946,0.36038 0.31066,0.65969 0.65527,0.78075c0.34461,0.12106 0.72781,0.04463 0.9996,-0.19938c1.41406,-1.18788 3.24073,-1.9043 5.25,-1.9043c4.15084,0 7.54196,3.05054 8.03906,7h-21.85547c-0.0467,-0.32694 -0.07617,-0.6598 -0.07617,-1c0,-3.87748 3.12252,-7 7,-7zM10.86914,22h25.96289c0.10799,0.01785 0.21818,0.01785 0.32617,0h1.97266l-4.66602,7h-18.92969zM10.85352,25.58203l3.31445,4.97266c0.18547,0.27818 0.49769,0.44528 0.83203,0.44531h20c0.33434,-0.00003 0.64656,-0.16713 0.83203,-0.44531l3.31445,-4.97266l-3.17969,17.41797h-21.93359z"></path></g></g></svg>