<svg version="1.1" xmlns="http://www.w3.org/2000/svg" xmlns:xlink="http://www.w3.org/1999/xlink" width="50px" height="50px" viewBox="0,0,256,256"><g fill="#1d0018" fill-rule="nonzero" stroke="none" stroke-width="1" stroke-linecap="butt" stroke-linejoin="miter" stroke-miterlimit="10" stroke-dasharray="" stroke-dashoffset="0" font-family="none" font-weight="none" font-size="none" text-anchor="none" style="mix-blend-mode: normal"><g transform="scale(5.12,5.12)"><path d="M21,2c-1.64453,0 -3,1.35547 -3,3v2h-10c-0.35937,-0.00391 -0.69531,0.18359 -0.87891,0.49609c-0.17969,0.3125 -0.17969,0.69531 0,1.00781c0.18359,0.3125 0.51953,0.5 0.87891,0.49609h1v36c0,1.65234 1.34766,3 3,3h26c1.65234,0 3,-1.34766 3,-3v-36h1c0.35938,0.00391 0.69531,-0.18359 0.87891,-0.49609c0.17969,-0.3125 0.17969,-0.69531 0,-1.00781c-0.18359,-0.3125 -0.51953,-0.5 -0.87891,-0.49609h-10v-2c0,-1.64453 -1.35547,-3 -3,-3zM21,4h8c0.55469,0 1,0.44531 1,1v2h-10v-2c0,-0.55469 0.44531,-1 1,-1zM18,20c0.25391,0 0.51172,0.09766 0.70703,0.29297l6.29297,6.29297l6.29297,-6.29297c0.39063,-0.39062 1.02344,-0.39062 1.41406,0c0.39063,0.39063 0.39063,1.02344 0,1.41406l-6.29297,6.29297l6.29297,6.29297c0.39063,0.39063 0.39063,1.02344 0,1.41406c-0.19531,0.19531 -0.44922,0.29297 -0.70703,0.29297c-0.25781,0 -0.51172,-0.09766 -0.70703,-0.29297l-6.29297,-6.29297l-6.29297,6.29297c-0.19531,0.19531 -0.44922,0.29297 -0.70703,0.29297c-0.25781,0 -0.51172,-0.09766 -0.70703,-0.29297c-0.39062,-0.39062 -0.39062,-1.02344 0,-1.41406l6.29297,-6.29297l-6.29297,-6.29297c-0.39062,-0.39062 -0.39062,-1.02344 0,-1.41406c0.19531,-0.19531 0.45313,-0.29297 0.70703,-0.29297z"></path></g></g></svg>