<svg version="1.1" xmlns="http://www.w3.org/2000/svg" xmlns:xlink="http://www.w3.org/1999/xlink" width="50px" height="50px" viewBox="0,0,256,256"><g fill="#ffffff" fill-rule="nonzero" stroke="none" stroke-width="1" stroke-linecap="butt" stroke-linejoin="miter" stroke-miterlimit="10" stroke-dasharray="" stroke-dashoffset="0" font-family="none" font-weight="none" font-size="none" text-anchor="none" style="mix-blend-mode: normal"><g transform="scale(5.12,5.12)"><path d="M24.96484,1c-0.21166,0.00754 -0.41546,0.08209 -0.58203,0.21289l-19.96094,15.62305l-3.03906,2.37695c-0.28131,0.22047 -0.42361,0.57428 -0.37328,0.92813c0.05033,0.35385 0.28565,0.65395 0.61728,0.78722c0.33163,0.13328 0.70917,0.07947 0.99037,-0.14113l1.38281,-1.08203v26.29492c0.00006,0.55226 0.44774,0.99994 1,1h40c0.55226,-0.00006 0.99994,-0.44774 1,-1v-26.29492l1.38281,1.08203c0.2812,0.22059 0.65873,0.27439 0.99036,0.14111c0.33162,-0.13328 0.56693,-0.43337 0.61727,-0.78721c0.05034,-0.35384 -0.09195,-0.70765 -0.37325,-0.92812l-2.98438,-2.33398l-20.01562,-15.66602c-0.18554,-0.14568 -0.41659,-0.22108 -0.65234,-0.21289zM25,3.26953l19,14.86914v26.86133h-38v-26.86133zM32.29883,17.02539c-0.31485,-0.02348 -0.63338,-0.01589 -0.94922,0.02344c-1.26337,0.15729 -2.52022,0.77995 -3.54297,1.80273c-1.02275,1.02278 -1.64354,2.27959 -1.80078,3.54297c-0.11575,0.93002 0.03625,1.88443 0.49219,2.69336l-1.32812,1.32813l-8.79687,-9.08203c-0.18841,-0.19474 -0.44778,-0.30469 -0.71875,-0.30469c-0.40275,0.00016 -0.7661,0.24188 -0.92187,0.61328c-0.53668,1.27915 -0.73435,2.64879 -0.6543,4.00195c0.15674,2.67231 1.37038,5.28835 3.28711,7.20508l2.68555,2.68555l-5.75781,5.75781c-0.26124,0.25082 -0.36648,0.62327 -0.27512,0.97371c0.09136,0.35044 0.36503,0.62411 0.71547,0.71547c0.35044,0.09136 0.72289,-0.01388 0.97371,-0.27512l5.75781,-5.75781l2.84375,2.8457c0.39053,0.39037 1.02353,0.39037 1.41406,0l2.91992,-2.91992l5.63867,5.82031c0.24731,0.26177 0.61626,0.37036 0.96594,0.28431c0.34969,-0.08605 0.62611,-0.35346 0.7237,-0.7001c0.09759,-0.34664 0.00129,-0.71899 -0.25214,-0.97484l-6.30859,-6.51172c-0.01202,-0.01335 -0.02439,-0.02638 -0.03711,-0.03906l-2.81055,-2.90234l1.34961,-1.34961c0.80894,0.45594 1.76334,0.60797 2.69336,0.49219c1.26337,-0.15729 2.52218,-0.778 3.54492,-1.80078c1.02275,-1.02278 1.64354,-2.27959 1.80078,-3.54297c0.15725,-1.26338 -0.1776,-2.57412 -1.10352,-3.5c-0.69443,-0.69441 -1.60429,-1.05457 -2.54883,-1.125zM32.15039,19.01563c0.52348,0.03363 0.95689,0.22253 1.2832,0.54883c0.43509,0.43507 0.62954,1.06387 0.5332,1.83789c-0.09634,0.77403 -0.50526,1.65172 -1.23047,2.37695c-0.72521,0.72524 -1.60293,1.1341 -2.37695,1.23047c-0.77402,0.09636 -1.40476,-0.09423 -1.83984,-0.5293c-0.43509,-0.43507 -0.62563,-1.06386 -0.5293,-1.83789c0.09634,-0.77403 0.50526,-1.65172 1.23047,-2.37695c0.72521,-0.72523 1.60293,-1.1341 2.37695,-1.23047c0.19351,-0.02409 0.37824,-0.03074 0.55273,-0.01953zM16.29883,20.13281l8.00195,8.25977c0.0733,0.11606 0.1697,0.21578 0.2832,0.29297l2.66602,2.75195l-2.23437,2.23633l-2.72266,-2.72461c-0.06555,-0.09164 -0.14611,-0.17154 -0.23828,-0.23633l-3.27539,-3.27734c-1.56527,-1.56527 -2.57981,-3.77251 -2.70508,-5.9082c-0.02866,-0.48442 0.16153,-0.92477 0.22461,-1.39453z"></path></g></g></svg>