<svg version="1.1" xmlns="http://www.w3.org/2000/svg" xmlns:xlink="http://www.w3.org/1999/xlink" width="30px" height="30px" viewBox="0,0,256,256"><g fill="#000000" fill-rule="nonzero" stroke="none" stroke-width="1" stroke-linecap="butt" stroke-linejoin="miter" stroke-miterlimit="10" stroke-dasharray="" stroke-dashoffset="0" font-family="none" font-weight="none" font-size="none" text-anchor="none" style="mix-blend-mode: normal"><g transform="scale(8.53333,8.53333)"><path d="M15,5c-8.9183,0 -14.67901,9.21118 -14.7832,9.37891c-0.14024,0.17666 -0.21665,0.39554 -0.2168,0.62109c0.00018,0.1935 0.05649,0.38279 0.16211,0.54492c0.0013,0.00196 0.0026,0.00391 0.00391,0.00586c0.01719,0.03548 4.85282,9.44922 14.83398,9.44922c9.93882,0 14.76733,-9.32126 14.82617,-9.43555c0.00398,-0.00647 0.00789,-0.01298 0.01172,-0.01953c0.10562,-0.16213 0.16193,-0.35142 0.16211,-0.54492c-0.00004,-0.22465 -0.07572,-0.44275 -0.21484,-0.61914c-0.00065,-0.00065 -0.0013,-0.0013 -0.00195,-0.00195c-0.10419,-0.16773 -5.86491,-9.37891 -14.7832,-9.37891zM15,8c3.866,0 7,3.134 7,7c0,3.866 -3.134,7 -7,7c-3.866,0 -7,-3.134 -7,-7c0,-3.866 3.134,-7 7,-7zM15,12c-1.65685,0 -3,1.34315 -3,3c0,1.65685 1.34315,3 3,3c1.65685,0 3,-1.34315 3,-3c0,-1.65685 -1.34315,-3 -3,-3z"></path></g></g></svg>