<svg version="1.1" xmlns="http://www.w3.org/2000/svg" xmlns:xlink="http://www.w3.org/1999/xlink" width="50px" height="50px" viewBox="0,0,256,256"><g fill="#ffffff" fill-rule="nonzero" stroke="none" stroke-width="1" stroke-linecap="butt" stroke-linejoin="miter" stroke-miterlimit="10" stroke-dasharray="" stroke-dashoffset="0" font-family="none" font-weight="none" font-size="none" text-anchor="none" style="mix-blend-mode: normal"><g transform="scale(5.12,5.12)"><path d="M5,7c-2.75,0 -5,2.25 -5,5v26c0,2.75 2.25,5 5,5h40c2.75,0 5,-2.25 5,-5v-26c0,-2.75 -2.25,-5 -5,-5zM5,9h40c1.66797,0 3,1.33203 3,3v26c0,1.66797 -1.33203,3 -3,3h-40c-1.66797,0 -3,-1.33203 -3,-3v-26c0,-1.66797 1.33203,-3 3,-3zM25.90625,18c-0.62109,0.125 -1.09375,0.68359 -1.09375,1.34375c0,0.74609 0.61719,1.34375 1.375,1.34375c0.74609,0 1.34375,-0.59766 1.34375,-1.34375c0,-0.75781 -0.59766,-1.34375 -1.34375,-1.34375c-0.09375,0 -0.19141,-0.01953 -0.28125,0zM16.8125,19.1875l-2.1875,0.375l-0.3125,1.9375l-0.78125,0.125l-0.28125,1.78125h1.0625v3.75c0,0.97266 0.24219,1.61719 0.75,2.03125c0.42578,0.34375 1.01563,0.53125 1.875,0.53125c0.66406,0 1.09375,-0.11719 1.375,-0.1875v-2.03125c-0.15625,0.03906 -0.51172,0.125 -0.75,0.125c-0.50781,0 -0.75,-0.25391 -0.75,-0.84375v-3.375h1.34375l0.3125,-1.90625h-1.65625zM10.15625,21.34375c-0.87109,0 -1.57422,0.23047 -2.09375,0.65625c-0.53906,0.44531 -0.8125,1.06641 -0.8125,1.84375c0,1.40625 0.85156,2.02344 2.25,2.53125c0.90234,0.32031 1.1875,0.55469 1.1875,0.90625c0,0.34375 -0.28516,0.53125 -0.8125,0.53125c-0.65234,0 -1.73437,-0.33594 -2.4375,-0.75l-0.3125,1.9375c0.60156,0.34375 1.71484,0.71875 2.875,0.71875c0.92188,0 1.70313,-0.24219 2.21875,-0.65625c0.57813,-0.45703 0.875,-1.13281 0.875,-2c0,-1.4375 -0.86328,-2.02344 -2.28125,-2.53125c-0.75781,-0.28125 -1.1875,-0.5 -1.1875,-0.84375c0,-0.28906 0.23047,-0.4375 0.65625,-0.4375c0.77734,0 1.57813,0.29297 2.125,0.5625l0.3125,-1.9375c-0.43359,-0.20703 -1.33203,-0.53125 -2.5625,-0.53125zM33.0625,21.34375c-0.74609,0 -1.39062,0.31641 -2,0.96875l-0.125,-0.8125h-2.28125v11.03125l2.59375,-0.4375v-2.5625c0.39453,0.125 0.79297,0.1875 1.15625,0.1875c0.64063,0 1.55469,-0.18359 2.28125,-0.96875c0.69531,-0.75781 1.0625,-1.92578 1.0625,-3.46875c0,-1.36719 -0.26172,-2.39844 -0.78125,-3.0625c-0.45703,-0.58984 -1.09766,-0.875 -1.90625,-0.875zM40.28125,21.34375c-2.18359,0 -3.5625,1.62891 -3.5625,4.21875c0,1.44922 0.37891,2.52734 1.09375,3.21875c0.64063,0.62109 1.55859,0.9375 2.75,0.9375c1.09766,0 2.10938,-0.26172 2.75,-0.6875l-0.28125,-1.75c-0.63281,0.34375 -1.35937,0.5 -2.1875,0.5c-0.49609,0 -0.84766,-0.09375 -1.09375,-0.3125c-0.26953,-0.22656 -0.41797,-0.59766 -0.46875,-1.125h4.25c0.01172,-0.125 0.03125,-0.71875 0.03125,-0.90625c0,-1.28516 -0.29687,-2.28516 -0.84375,-3c-0.55859,-0.72656 -1.37109,-1.09375 -2.4375,-1.09375zM23.40625,21.375c-0.72656,0 -1.30469,0.37891 -1.53125,1.0625l-0.15625,-0.9375h-2.25v8.0625h2.5625v-5.25c0.32031,-0.39453 0.78516,-0.53125 1.40625,-0.53125c0.13672,0 0.26172,0 0.4375,0.03125v-2.375c-0.17578,-0.03906 -0.3125,-0.0625 -0.46875,-0.0625zM24.875,21.5v8.0625h2.59375v-8.0625zM40.03125,23.09375c0.06641,-0.01562 0.11328,0 0.1875,0c0.57813,0 0.89844,0.54688 0.9375,1.6875h-1.90625c0.0625,-1.00391 0.32422,-1.57031 0.78125,-1.6875zM32.21875,23.3125c0.65234,0 0.96875,0.68359 0.96875,2.0625c0,0.78516 -0.10547,1.39844 -0.34375,1.8125c-0.20703,0.39453 -0.53516,0.59375 -0.90625,0.59375c-0.25781,0 -0.48047,-0.05469 -0.6875,-0.15625v-3.8125c0.43359,-0.45703 0.82422,-0.5 0.96875,-0.5z"></path></g></g></svg>