<svg version="1.1" xmlns="http://www.w3.org/2000/svg" xmlns:xlink="http://www.w3.org/1999/xlink" width="32px" height="32px" viewBox="0,0,256,256"><g fill="#c69a50" fill-rule="nonzero" stroke="none" stroke-width="1" stroke-linecap="butt" stroke-linejoin="miter" stroke-miterlimit="10" stroke-dasharray="" stroke-dashoffset="0" font-family="none" font-weight="none" font-size="none" text-anchor="none" style="mix-blend-mode: normal"><g transform="scale(8,8)"><path d="M13,3v2h6v-2zM24.71875,5.28125l-1.4375,1.4375l0.78125,0.78125l-1.03125,1.0625c-1.90625,-1.58984 -4.36328,-2.5625 -7.03125,-2.5625c-6.0625,0 -11,4.9375 -11,11c0,6.0625 4.9375,11 11,11c6.0625,0 11,-4.9375 11,-11c0,-2.66797 -0.97266,-5.125 -2.5625,-7.03125l1.0625,-1.03125l0.78125,0.78125l1.4375,-1.4375zM16,8c4.98047,0 9,4.01953 9,9c0,4.98047 -4.01953,9 -9,9c-4.98047,0 -9,-4.01953 -9,-9c0,-4.98047 4.01953,-9 9,-9zM11.71875,11.28125l-1.4375,1.4375l3.78125,3.78125c-0.04297,0.16016 -0.0625,0.32813 -0.0625,0.5c0,1.10547 0.89453,2 2,2c1.10547,0 2,-0.89453 2,-2c0,-1.10547 -0.89453,-2 -2,-2c-0.17187,0 -0.33984,0.01953 -0.5,0.0625z"></path></g></g></svg>