<svg version="1.1" xmlns="http://www.w3.org/2000/svg" xmlns:xlink="http://www.w3.org/1999/xlink" width="24px" height="24px" viewBox="0,0,256,256"><g fill="#000000" fill-rule="nonzero" stroke="none" stroke-width="1" stroke-linecap="butt" stroke-linejoin="miter" stroke-miterlimit="10" stroke-dasharray="" stroke-dashoffset="0" font-family="none" font-weight="none" font-size="none" text-anchor="none" style="mix-blend-mode: normal"><g transform="scale(10.66667,10.66667)"><path d="M11,0v3.03125c-4.20312,0.45313 -7.51562,3.76563 -7.96875,7.96875h-3.03125v2h3.03125c0.45313,4.20313 3.76563,7.51563 7.96875,7.96875v3.03125h2v-3.03125c4.20313,-0.45312 7.51563,-3.76562 7.96875,-7.96875h3.03125v-2h-3.03125c-0.45312,-4.20312 -3.76562,-7.51562 -7.96875,-7.96875v-3.03125zM12,4.5c4.10156,0 7.5,3.39844 7.5,7.5c0,4.10156 -3.39844,7.5 -7.5,7.5c-4.10156,0 -7.5,-3.39844 -7.5,-7.5c0,-4.10156 3.39844,-7.5 7.5,-7.5zM12,8c-2.21094,0 -4,1.78906 -4,4c0,2.21094 1.78906,4 4,4c2.21094,0 4,-1.78906 4,-4c0,-2.21094 -1.78906,-4 -4,-4z"></path></g></g></svg>